<svg xmlns="http://www.w3.org/2000/svg" viewBox="0 0 64 64">
  <rect width="64" height="64" rx="16" fill="#c44d64"/>
  <!-- "S" in Instrument Serif Italic, 44px, centered at x=32, baseline y=46 (outlined) -->
  <path fill="#fdf9f9" d="M30.28 46.40L30.28 46.40Q29.05 46.40 27.67 46.13Q26.28 45.87 25.07 45.41Q23.86 44.94 23.16 44.33L23.16 44.33Q22.94 44.11 22.87 43.89Q22.80 43.67 22.89 43.23L22.89 43.23L24.12 36.32Q24.26 35.53 24.83 35.53L24.83 35.53Q25.36 35.53 25.36 36.41L25.36 36.41L25.40 38.12Q25.49 41.82 26.68 43.45Q27.86 45.08 30.55 45.08L30.55 45.08Q33.01 45.08 34.64 43.29Q36.27 41.51 36.27 38.52L36.27 38.52Q36.27 36.58 35.21 34.47Q34.16 32.36 32.26 30.25L32.26 30.25Q30.02 27.74 28.94 25.67Q27.86 23.60 27.86 21.32L27.86 21.32Q27.86 19.51 28.74 17.82Q29.62 16.12 31.41 15.00Q33.19 13.88 35.96 13.88L35.96 13.88Q39.79 13.88 41.81 15.60L41.81 15.60Q42.43 16.08 42.25 17.05L42.25 17.05L41.02 23.47Q40.89 24.13 40.40 24.13L40.40 24.13Q39.92 24.13 39.83 23.38L39.83 23.38L39.79 22.46Q39.61 18.90 38.80 17.03Q37.98 15.16 35.56 15.16L35.56 15.16Q33.80 15.16 32.75 15.95Q31.69 16.74 31.21 17.91Q30.72 19.07 30.72 20.22L30.72 20.22Q30.72 21.49 31.08 22.66Q31.43 23.82 32.29 25.12Q33.14 26.42 34.64 28.27L34.64 28.27Q36.75 30.78 37.94 33.06Q39.13 35.35 39.13 37.51L39.13 37.51Q39.13 40.10 37.96 42.11Q36.80 44.11 34.82 45.25Q32.84 46.40 30.28 46.40Z"/>
</svg>
